<svg version="1.1" id="Layer_1" xmlns="http://www.w3.org/2000/svg" xmlns:xlink="http://www.w3.org/1999/xlink" x="0px" y="0px"
	 width="100%" viewBox="0 0 370 370" enable-background="new 0 0 370 370" xml:space="preserve">
<path fill="#000000" opacity="1.000000" stroke="none" 
	d="
M248.000000,371.000000 
	C165.361084,371.000000 83.222176,371.000000 1.041631,371.000000 
	C1.041631,247.736099 1.041631,124.472168 1.041631,1.104120 
	C124.222183,1.104120 247.444473,1.104120 370.833374,1.104120 
	C370.833374,124.333145 370.833374,247.666550 370.833374,371.000000 
	C330.138916,371.000000 289.319458,371.000000 248.000000,371.000000 
M236.667526,200.870499 
	C238.078247,200.242294 239.488968,199.614090 240.959366,198.969376 
	C240.959366,198.969376 240.982193,198.911819 241.592575,198.618027 
	C244.898453,195.908432 248.860229,193.703873 251.400604,190.404800 
	C264.867828,172.915466 258.109009,143.270844 238.188583,131.994766 
	C236.813400,130.647247 235.438217,129.299713 234.025848,127.059029 
	C233.435303,117.272148 232.597610,107.546738 226.851776,98.313911 
	C222.564590,90.050621 217.260162,82.745529 208.248901,78.732903 
	C208.248901,78.732903 208.128387,78.873596 207.912003,78.257629 
	C206.615494,77.549828 205.318985,76.842026 203.954697,76.053276 
	C203.954697,76.053276 203.856476,76.014534 203.308273,75.594147 
	C200.210068,74.748039 197.111862,73.901924 193.270096,72.693466 
	C185.784378,71.663422 178.412720,71.463028 171.199219,74.461563 
	C152.572678,82.204338 143.442078,97.174255 138.985962,115.932388 
	C138.419891,118.315231 137.081894,120.965019 135.270096,122.526360 
	C125.655022,130.812302 118.912552,140.759201 115.642456,153.116241 
	C111.335358,169.391861 117.131798,190.312225 133.213379,199.697784 
	C149.415344,209.153595 165.418121,207.951431 182.016144,201.438110 
	C185.324158,200.139969 189.266800,200.459045 193.429092,200.488770 
	C194.960632,200.957077 196.492172,201.425369 198.032944,201.946823 
	C198.032944,201.946823 198.086273,201.955109 198.719513,202.345840 
	C201.805069,202.824371 204.890640,203.302887 208.465805,203.905884 
	C208.630325,203.941849 208.794846,203.977798 209.687408,204.417282 
	C215.013382,204.244934 220.339340,204.072571 226.464081,203.807541 
	C226.994354,203.729340 227.524612,203.651123 228.776215,203.624252 
	C231.160553,202.739288 233.544876,201.854324 235.979919,200.980881 
	C235.979919,200.980881 235.984100,200.929062 236.667526,200.870499 
z"/>
<path fill="#0C0853" opacity="1.000000" stroke="none" 
	d="
M192.916809,200.032379 
	C189.266800,200.459045 185.324158,200.139969 182.016144,201.438110 
	C165.418121,207.951431 149.415344,209.153595 133.213379,199.697784 
	C117.131798,190.312225 111.335358,169.391861 115.642456,153.116241 
	C118.912552,140.759201 125.655022,130.812302 135.270096,122.526360 
	C137.081894,120.965019 138.419891,118.315231 138.985962,115.932388 
	C143.442078,97.174255 152.572678,82.204338 171.199219,74.461563 
	C178.412720,71.463028 185.784378,71.663422 193.949966,73.045319 
	C197.705383,74.269630 200.780930,75.142082 203.856476,76.014534 
	C203.856476,76.014534 203.954697,76.053276 204.170883,76.344482 
	C205.634171,77.381660 206.881287,78.127632 208.128387,78.873596 
	C208.128387,78.873596 208.248901,78.732903 208.142517,79.045853 
	C206.858459,80.147903 205.767502,81.402222 204.487228,81.640823 
	C200.274643,82.425896 198.093124,84.720322 197.983658,89.011261 
	C197.967728,89.022980 198.000565,89.000481 198.275238,89.008759 
	C198.732986,89.023239 198.916092,89.029449 198.974609,89.378983 
	C198.359375,92.883926 196.923019,96.256729 197.572174,99.163834 
	C198.983994,105.486435 201.317215,111.623741 203.558624,117.732285 
	C204.733582,120.934418 206.510010,123.915871 207.941284,127.309875 
	C207.762833,129.637558 207.657913,131.652344 207.552979,133.667130 
	C209.034744,133.107407 210.516510,132.547684 212.239578,132.133499 
	C212.990616,132.516907 213.500351,132.754776 213.959778,133.286774 
	C214.288605,135.062317 211.039825,137.418243 214.995483,138.439636 
	C217.004974,142.548492 219.003326,146.257965 221.139984,150.215424 
	C221.778214,153.080353 222.278137,155.697296 222.710159,157.958786 
	C221.033951,158.531479 218.811188,158.595215 218.030716,159.688538 
	C215.725830,162.917374 213.102051,162.831131 209.787872,161.857101 
	C207.621552,161.220413 205.250641,161.279907 202.729614,161.022064 
	C202.487854,161.016525 202.003815,161.004211 201.831589,160.776672 
	C201.104340,160.034119 200.549301,159.519119 199.990189,158.757416 
	C199.986115,158.510712 199.978043,158.017303 199.807816,157.765015 
	C198.088837,157.017807 196.540100,156.522873 194.692139,155.863495 
	C190.783966,153.908234 189.154800,150.887558 188.980316,146.992599 
	C188.990494,147.015640 188.947250,146.993607 189.195312,146.799561 
	C190.242676,145.312836 191.041946,144.020172 192.377594,141.860046 
	C188.173660,143.195297 185.107925,144.169037 181.978516,145.378906 
	C181.914841,145.615021 181.760269,146.079086 181.393646,146.087158 
	C175.341995,146.334106 170.135117,147.800613 165.691895,152.081543 
	C164.475235,153.793701 162.366165,156.043091 162.820435,156.850784 
	C164.489258,159.817978 166.793396,162.543564 169.325195,164.847076 
	C170.215042,165.656693 172.448563,164.989487 174.366852,165.102783 
	C176.454041,165.464905 178.242935,165.720871 180.159882,166.288239 
	C180.632111,167.162796 180.891861,167.805176 181.334045,168.276352 
	C184.325729,171.464279 187.449005,174.535950 190.297684,177.844971 
	C190.888885,178.531693 190.507614,180.055588 190.570053,181.117584 
	C193.324539,182.385498 196.161530,183.691391 198.999268,184.998642 
	C199.000000,185.000000 199.003540,185.002838 199.229858,185.192047 
	C201.639099,185.579575 203.822037,185.777893 206.128967,186.271667 
	C207.488419,187.626450 208.723846,188.685776 210.063385,190.018799 
	C211.446533,191.320236 212.598785,192.945862 214.031311,193.249603 
	C216.897415,193.857330 219.917007,193.741241 223.433945,193.958679 
	C223.906326,193.392273 224.950623,192.140121 226.015915,190.899567 
	C226.036911,190.911194 226.074417,190.941147 226.238617,191.208908 
	C228.612930,191.974747 230.823074,192.472809 233.427795,192.954056 
	C241.234589,192.351151 241.234589,192.351151 240.982193,198.911819 
	C240.982193,198.911819 240.959366,198.969376 240.582153,199.004227 
	C238.797989,199.669067 237.391037,200.299057 235.984100,200.929047 
	C235.984100,200.929062 235.979919,200.980881 235.585541,201.036255 
	C232.812408,201.918747 230.433655,202.745834 228.054886,203.572922 
	C227.524612,203.651123 226.994354,203.729340 225.627197,203.868591 
	C219.513321,203.957687 214.236343,203.985718 208.959366,204.013763 
	C208.794846,203.977798 208.630325,203.941849 207.941360,203.624634 
	C204.306702,202.880630 201.196487,202.417877 198.086273,201.955109 
	C198.086273,201.955109 198.032944,201.946823 197.774857,201.695801 
	C195.983459,200.973969 194.450134,200.503174 192.916809,200.032379 
M152.525421,161.616882 
	C153.028488,160.425888 153.531555,159.234894 154.531372,158.116501 
	C157.675873,154.754898 160.820374,151.393295 164.000519,147.995300 
	C164.000519,147.995300 164.037445,147.960236 164.516235,147.782745 
	C165.350052,146.526901 166.183868,145.271072 167.700272,144.071060 
	C175.279892,141.533478 182.917831,139.148819 190.380203,136.303741 
	C191.585861,135.844086 192.510254,133.390732 192.685516,131.764236 
	C192.985352,128.981674 192.836227,126.089058 192.438431,123.305122 
	C191.442505,116.335121 188.601578,114.286255 181.710083,115.015282 
	C180.443085,115.149330 178.713242,115.301285 177.902008,114.613487 
	C173.700409,111.051270 168.840759,113.310440 165.848373,115.010307 
	C160.172653,118.234467 152.718002,118.837067 148.348785,125.438545 
	C146.899185,128.959030 145.449600,132.479523 143.473816,136.341095 
	C142.949387,139.261139 143.400223,143.063705 141.711380,144.930054 
	C137.261383,149.847672 138.484543,154.766083 139.878006,160.755615 
	C139.570709,163.871780 139.062958,166.986206 139.036209,170.104782 
	C139.021667,171.799484 139.707962,173.542480 140.288956,175.189331 
	C141.025452,177.276993 141.936218,179.310104 142.964355,181.265488 
	C143.010742,181.353699 144.955704,180.443619 146.504272,180.001083 
	C146.504272,180.001083 146.992569,180.005600 147.032501,180.788376 
	C147.213684,184.600632 147.869171,187.955643 153.283234,187.475281 
	C153.528748,187.977783 153.774261,188.480270 153.914810,189.632172 
	C153.320679,195.708969 158.367844,195.573410 162.505402,196.983246 
	C162.505402,196.983246 162.999878,196.983887 163.579407,197.240463 
	C164.383530,197.495026 165.187668,197.749588 166.453323,197.949097 
	C170.292831,197.518372 174.132355,197.087662 179.611771,196.472977 
	C177.481781,193.937897 176.240280,192.460281 174.784348,190.331573 
	C172.850830,188.559860 170.917313,186.788147 168.467957,184.787415 
	C167.966324,184.529190 167.464706,184.270981 166.632767,183.555069 
	C166.088791,183.039093 165.544815,182.523102 164.418030,181.755981 
	C163.611252,181.504288 162.804489,181.252594 161.789734,180.423950 
	C161.191498,179.617737 160.593262,178.811539 159.497696,178.000336 
	C159.497696,178.000336 159.000366,177.997314 158.531326,177.536087 
	C157.363419,175.691559 156.195511,173.847031 154.740952,171.423386 
	C153.828033,170.282364 152.915131,169.141342 151.380341,167.993729 
	C150.965759,167.991165 150.551178,167.988602 150.531403,167.547928 
	C151.036758,165.720016 151.542114,163.892120 152.525421,161.616882 
M170.012497,109.768707 
	C169.962677,109.997131 169.912872,110.225555 169.863068,110.453987 
	C169.991333,110.462715 170.119614,110.471436 170.247879,110.480164 
	C170.233612,110.247604 170.219360,110.015038 170.012497,109.768707 
M141.019791,131.973846 
	C141.019791,131.973846 141.044373,132.006424 141.019791,131.973846 
z"/>
<path fill="#0C0C4F" opacity="1.000000" stroke="none" 
	d="
M241.287384,198.764923 
	C241.234589,192.351151 241.234589,192.351151 233.423431,192.625610 
	C233.019348,191.875214 233.014191,191.436462 233.253998,190.844543 
	C236.119797,189.743240 238.741364,188.025452 241.361252,188.028000 
	C245.255753,188.031784 247.281357,187.089050 248.472534,183.118744 
	C249.329681,180.261810 251.759491,177.897339 253.289307,175.200623 
	C253.535782,174.766113 252.900040,173.614624 252.405655,173.013855 
	C250.270844,170.419754 251.156464,168.192780 252.922684,165.862762 
	C254.089066,164.324097 254.972015,162.570572 255.909073,161.032684 
	C254.778687,160.707626 253.682922,160.732086 253.338242,160.235352 
	C251.743408,157.936966 250.424622,157.358841 249.032791,160.358109 
	C248.683899,161.109924 248.095047,161.750397 247.239548,162.986786 
	C246.284973,160.886017 245.629837,159.444244 245.166595,157.767120 
	C245.907974,156.683868 246.457504,155.835953 247.187378,154.776276 
	C246.840393,151.958267 246.795242,149.122009 245.684662,146.793991 
	C243.424255,142.055664 240.588989,137.591599 238.118622,132.898865 
	C238.246628,132.783218 238.500214,132.549240 238.500214,132.549240 
	C258.109009,143.270844 264.867828,172.915466 251.400604,190.404800 
	C248.860229,193.703873 244.898453,195.908432 241.287384,198.764923 
M253.219833,179.802475 
	C253.219833,179.802475 253.216522,179.854172 253.219833,179.802475 
z"/>
<path fill="#0F1D51" opacity="1.000000" stroke="none" 
	d="
M227.045944,98.993706 
	C232.597610,107.546738 233.435303,117.272148 233.769653,127.631851 
	C232.979233,128.487686 232.445007,128.770706 231.669525,128.953705 
	C230.968277,127.683296 230.157898,126.525795 230.114243,125.340057 
	C229.985474,121.842781 225.362381,116.100204 222.126785,114.904419 
	C219.907196,114.084129 218.031784,112.332588 216.133026,110.750748 
	C221.182251,105.296379 221.095871,104.841743 214.695114,101.388725 
	C214.173523,101.107346 213.614075,100.630211 213.388977,100.107613 
	C211.720062,96.232971 209.849258,92.357002 212.270706,88.135620 
	C217.419968,91.830048 222.232956,95.411873 227.045944,98.993706 
z"/>
<path fill="#0C0C4F" opacity="1.000000" stroke="none" 
	d="
M231.910767,129.053726 
	C232.445007,128.770706 232.979233,128.487686 233.788239,128.078430 
	C235.438217,129.299713 236.813400,130.647247 238.344391,132.272003 
	C238.500214,132.549240 238.246628,132.783218 237.828247,132.993408 
	C236.305130,135.207779 235.200409,137.211960 233.860092,139.474426 
	C232.721985,141.635971 231.653473,143.479752 230.946762,145.453125 
	C228.378387,152.624832 225.947891,159.849380 219.475967,165.003632 
	C214.723083,164.679276 210.355331,164.369690 205.713608,163.908646 
	C204.616882,162.847305 203.794113,161.937454 202.971359,161.027588 
	C205.250641,161.279907 207.621552,161.220413 209.787872,161.857101 
	C213.102051,162.831131 215.725830,162.917374 218.030716,159.688538 
	C218.811188,158.595215 221.033951,158.531479 222.710159,157.958786 
	C222.278137,155.697296 221.778214,153.080353 221.237274,149.942230 
	C223.123413,147.623047 225.050537,145.825027 226.996460,144.072235 
	C227.015274,144.117462 227.023010,143.988739 226.946533,143.672226 
	C226.550415,142.543289 226.230774,141.730865 226.069885,140.616608 
	C228.122681,136.561081 230.016724,132.807404 231.910767,129.053726 
M219.989609,160.961349 
	C219.989609,160.961349 220.030701,160.966644 219.989609,160.961349 
z"/>
<path fill="#0D1250" opacity="1.000000" stroke="none" 
	d="
M226.948853,98.653809 
	C222.232956,95.411873 217.419968,91.830048 211.968994,88.018799 
	C208.233292,88.198151 205.135590,88.606911 201.669342,89.016968 
	C200.566940,89.024055 199.833054,89.029861 199.099182,89.035667 
	C198.916092,89.029449 198.732986,89.023239 198.274948,89.008514 
	C198.000000,89.000000 197.999588,88.999550 197.999588,88.999550 
	C198.093124,84.720322 200.274643,82.425896 204.487228,81.640823 
	C205.767502,81.402222 206.858459,80.147903 208.234192,79.059105 
	C217.260162,82.745529 222.564590,90.050621 226.948853,98.653809 
z"/>
<path fill="#0C0C4F" opacity="1.000000" stroke="none" 
	d="
M209.323395,204.215515 
	C214.236343,203.985718 219.513321,203.957687 225.227814,203.914948 
	C220.339340,204.072571 215.013382,204.244934 209.323395,204.215515 
z"/>
<path fill="#0C0C4F" opacity="1.000000" stroke="none" 
	d="
M198.402893,202.150482 
	C201.196487,202.417877 204.306702,202.880630 207.696564,203.562408 
	C204.890640,203.302887 201.805069,202.824371 198.402893,202.150482 
z"/>
<path fill="#0D1250" opacity="1.000000" stroke="none" 
	d="
M203.582367,75.804337 
	C200.780930,75.142082 197.705383,74.269630 194.321747,73.226501 
	C197.111862,73.901924 200.210068,74.748039 203.582367,75.804337 
z"/>
<path fill="#0C0C4F" opacity="1.000000" stroke="none" 
	d="
M228.415558,203.598587 
	C230.433655,202.745834 232.812408,201.918747 235.560196,201.030502 
	C233.544876,201.854324 231.160553,202.739288 228.415558,203.598587 
z"/>
<path fill="#0C0C4F" opacity="1.000000" stroke="none" 
	d="
M236.325806,200.899780 
	C237.391037,200.299057 238.797989,199.669067 240.552307,199.012482 
	C239.488968,199.614090 238.078247,200.242294 236.325806,200.899780 
z"/>
<path fill="#0D1250" opacity="1.000000" stroke="none" 
	d="
M208.020203,78.565613 
	C206.881287,78.127632 205.634171,77.381660 204.204773,76.384964 
	C205.318985,76.842026 206.615494,77.549828 208.020203,78.565613 
z"/>
<path fill="#0C0C4F" opacity="1.000000" stroke="none" 
	d="
M193.172943,200.260574 
	C194.450134,200.503174 195.983459,200.973969 197.770233,201.669220 
	C196.492172,201.425369 194.960632,200.957077 193.172943,200.260574 
z"/>
<path fill="#14235B" opacity="1.000000" stroke="none" 
	d="
M244.974701,158.002457 
	C245.629837,159.444244 246.284973,160.886017 247.239548,162.986786 
	C248.095047,161.750397 248.683899,161.109924 249.032791,160.358109 
	C250.424622,157.358841 251.743408,157.936966 253.338242,160.235352 
	C253.682922,160.732086 254.778687,160.707626 255.909073,161.032684 
	C254.972015,162.570572 254.089066,164.324097 252.922684,165.862762 
	C251.156464,168.192780 250.270844,170.419754 252.405655,173.013855 
	C252.900040,173.614624 253.535782,174.766113 253.289307,175.200623 
	C251.759491,177.897339 249.329681,180.261810 248.472534,183.118744 
	C247.281357,187.089050 245.255753,188.031784 241.361252,188.028000 
	C238.741364,188.025452 236.119797,189.743240 232.907394,190.773132 
	C230.235352,190.883636 228.154877,190.912384 226.074417,190.941147 
	C226.074417,190.941147 226.036911,190.911194 225.781769,190.689529 
	C221.163956,189.483673 216.820740,188.385300 212.418182,187.635300 
	C211.738083,187.519440 210.785721,189.001846 209.959259,189.745117 
	C208.723846,188.685776 207.488419,187.626450 206.014526,185.950562 
	C203.977692,183.110687 202.100204,180.945740 200.404144,178.646957 
	C198.836151,176.521713 197.462494,174.253067 195.756363,171.893723 
	C194.983032,171.490387 194.456604,171.240906 193.553757,170.968933 
	C190.162537,170.485901 186.757538,170.510681 187.275558,165.793396 
	C188.351562,164.054764 189.160995,162.510117 190.188904,160.834015 
	C191.555161,160.496338 192.702957,160.290115 193.968124,160.317352 
	C195.057068,161.033295 196.028656,161.515778 197.159622,162.164749 
	C197.530228,162.554443 197.742096,162.777039 197.932297,163.367935 
	C197.936462,165.826355 197.962936,167.915848 198.150635,170.167526 
	C198.526428,170.545349 198.743866,170.758057 199.150803,170.713989 
	C200.227051,169.291412 201.116669,168.122665 202.377823,166.964798 
	C203.492584,166.988724 204.235809,167.001770 204.979370,167.414001 
	C204.979706,169.949371 204.979706,172.085571 204.979706,174.294128 
	C206.157043,174.893478 207.875839,175.182816 208.337402,176.102859 
	C210.564438,180.542023 213.626480,178.573181 216.183746,177.068008 
	C218.992767,175.414673 221.392868,173.066605 223.981171,171.015045 
	C223.991211,171.008820 223.989929,171.021255 224.050446,171.294708 
	C224.752258,172.720703 225.393570,173.873230 226.377396,174.934814 
	C228.283600,173.271317 230.105362,171.877670 231.349243,170.083405 
	C233.123779,167.523651 234.474762,164.670288 236.247513,161.775879 
	C236.728073,161.078217 236.967758,160.547012 237.416168,160.001770 
	C237.624878,159.987701 238.041748,159.952515 238.283264,159.961761 
	C238.524780,159.971024 239.007034,160.004364 239.128571,160.023148 
	C239.250122,160.041931 239.617386,160.049088 239.617386,160.049088 
	C239.617386,160.049088 239.981781,160.000305 240.144028,159.740417 
	C241.210922,158.663986 242.115570,157.847458 243.259186,157.162430 
	C243.990326,157.530106 244.482513,157.766281 244.974701,158.002457 
M247.108124,167.826660 
	C244.548950,168.630005 241.989777,169.433334 238.382309,170.565750 
	C243.982758,173.587296 245.712646,172.874329 247.108124,167.826660 
M236.419250,166.270416 
	C236.439301,166.511139 236.459335,166.751862 236.479385,166.992584 
	C236.618652,166.957443 236.757919,166.922287 236.897186,166.887146 
	C236.806107,166.664673 236.715027,166.442184 236.419250,166.270416 
M241.516373,161.994827 
	C241.516373,161.994827 241.480698,162.004074 241.516373,161.994827 
M243.479340,159.517029 
	C243.479340,159.517029 243.513962,159.510834 243.479340,159.517029 
z"/>
<path fill="#121E57" opacity="1.000000" stroke="none" 
	d="
M148.963745,125.219536 
	C152.718002,118.837067 160.172653,118.234467 165.848373,115.010307 
	C168.840759,113.310440 173.700409,111.051270 177.902008,114.613487 
	C178.713242,115.301285 180.443085,115.149330 181.710083,115.015282 
	C188.601578,114.286255 191.442505,116.335121 192.438431,123.305122 
	C192.836227,126.089058 192.985352,128.981674 192.685516,131.764236 
	C192.510254,133.390732 191.585861,135.844086 190.380203,136.303741 
	C182.917831,139.148819 175.279892,141.533478 167.083862,143.900513 
	C165.458542,142.932861 163.964310,142.342773 163.521347,141.304260 
	C161.089645,135.603287 161.055695,135.528030 156.305679,139.148895 
	C150.834244,134.106598 149.335602,131.263306 148.963745,125.219536 
M152.523376,125.481285 
	C152.523376,125.481285 152.487900,125.488197 152.523376,125.481285 
z"/>
<path fill="#15215D" opacity="1.000000" stroke="none" 
	d="
M148.656265,125.329041 
	C149.335602,131.263306 150.834244,134.106598 156.305679,139.148895 
	C161.055695,135.528030 161.089645,135.603287 163.521347,141.304260 
	C163.964310,142.342773 165.458542,142.932861 166.742584,143.872589 
	C166.183868,145.271072 165.350052,146.526901 164.257477,147.858963 
	C163.998718,147.935181 163.964859,148.031677 163.964874,148.031677 
	C160.820374,151.393295 157.675873,154.754898 154.251709,158.054932 
	C153.972046,157.993378 153.909409,157.944244 153.804871,157.697464 
	C152.962891,154.410080 154.352386,150.458359 150.031494,148.935211 
	C150.007294,148.928009 149.945023,149.050934 149.845154,149.389862 
	C149.486603,152.484222 149.227936,155.239639 148.783325,158.261078 
	C147.051193,160.037979 145.505020,161.548874 143.939423,162.726624 
	C143.741287,159.743820 142.947525,158.105560 139.999695,160.009476 
	C138.484543,154.766083 137.261383,149.847672 141.711380,144.930054 
	C143.400223,143.063705 142.949387,139.261139 143.747772,136.187866 
	C144.021713,136.034622 144.000000,136.000000 144.000000,136.000000 
	C145.449600,132.479523 146.899185,128.959030 148.656265,125.329041 
M151.474014,138.536530 
	C151.474014,138.536530 151.464264,138.501205 151.474014,138.536530 
M149.481293,133.517151 
	C149.481293,133.517151 149.513031,133.513504 149.481293,133.517151 
z"/>
<path fill="#16245D" opacity="1.000000" stroke="none" 
	d="
M231.669525,128.953705 
	C230.016724,132.807404 228.122681,136.561081 225.819977,140.441162 
	C224.243607,139.252213 223.075897,137.936905 222.307602,137.071472 
	C219.533722,137.438431 217.259048,137.739349 214.984360,138.040268 
	C211.039825,137.418243 214.288605,135.062317 213.955444,133.291901 
	C214.001434,133.002899 214.002640,133.014511 213.993164,132.836151 
	C213.311447,132.440536 212.639206,132.223251 211.975708,132.002960 
	C211.984421,131.999924 211.998276,131.987961 211.998276,131.987961 
	C210.516510,132.547684 209.034744,133.107407 207.552979,133.667130 
	C207.657913,131.652344 207.762833,129.637558 208.160721,127.086777 
	C208.997284,124.751251 210.209778,122.847458 209.948837,121.173325 
	C209.359253,117.390846 208.041885,113.721802 207.263153,110.005829 
	C207.505737,110.005043 207.991501,110.007103 208.073303,109.935944 
	C208.210190,109.763390 208.333755,109.636612 208.307358,109.565422 
	C208.231400,109.360573 208.094864,109.178177 207.771439,108.976578 
	C207.560745,108.966194 207.139618,108.940231 207.142273,108.701782 
	C207.144928,108.463333 207.139511,107.986443 207.329224,107.831711 
	C208.877930,107.851692 210.348282,107.759216 211.568207,108.267662 
	C213.150635,108.927216 214.533646,110.065262 216.002518,110.997330 
	C218.031784,112.332588 219.907196,114.084129 222.126785,114.904419 
	C225.362381,116.100204 229.985474,121.842781 230.114243,125.340057 
	C230.157898,126.525795 230.968277,127.683296 231.669525,128.953705 
M223.753021,122.396797 
	C223.649063,123.015480 223.243103,123.910301 223.503876,124.195526 
	C224.050934,124.793846 224.948669,125.071556 225.702423,125.480904 
	C225.874039,125.277000 226.045670,125.073097 226.217285,124.869186 
	C225.529114,124.076874 224.840958,123.284561 223.753021,122.396797 
M210.536575,129.591415 
	C210.536575,129.591415 210.471069,129.565948 210.536575,129.591415 
M213.514267,113.985374 
	C213.514267,113.985374 213.484024,113.992722 213.514267,113.985374 
z"/>
<path fill="#0B1554" opacity="1.000000" stroke="none" 
	d="
M162.999878,196.983887 
	C162.999878,196.983887 162.505402,196.983246 162.132339,196.696945 
	C159.179459,193.934677 156.599625,191.458710 154.019791,188.982758 
	C153.774261,188.480270 153.528748,187.977783 152.967911,187.005432 
	C149.723145,181.534195 150.556686,179.651871 156.154190,178.602234 
	C157.107224,178.423523 158.051849,178.200089 159.000366,177.997314 
	C159.000366,177.997314 159.497696,178.000336 159.850586,178.291107 
	C160.801544,179.388214 161.399628,180.194565 161.997711,181.000916 
	C162.804489,181.252594 163.611252,181.504288 164.876312,182.109467 
	C165.877426,182.979553 166.420258,183.496170 166.963074,184.012772 
	C167.464706,184.270981 167.966324,184.529190 168.857040,185.220306 
	C171.163666,187.429688 173.081207,189.206177 174.998764,190.982666 
	C176.240280,192.460281 177.481781,193.937897 179.611771,196.472977 
	C174.132355,197.087662 170.292831,197.518372 166.060577,197.790619 
	C164.778503,197.416046 163.889191,197.199966 162.999878,196.983887 
z"/>
<path fill="#0F1B51" opacity="1.000000" stroke="none" 
	d="
M189.970428,160.965469 
	C189.160995,162.510117 188.351562,164.054764 187.148590,165.579010 
	C184.513947,165.698029 182.272888,165.837433 180.031815,165.976837 
	C178.242935,165.720871 176.454041,165.464905 174.101379,164.895599 
	C172.294968,162.704132 170.296402,160.901062 170.099640,158.919083 
	C169.985779,157.772095 172.774353,156.336975 174.707336,154.634644 
	C171.283066,153.584595 168.629471,152.770859 165.975891,151.957138 
	C170.135117,147.800613 175.341995,146.334106 181.578506,146.356842 
	C183.450150,148.056396 184.770294,149.494354 185.860046,151.135254 
	C183.155731,153.163696 182.265182,155.000702 185.350327,157.162659 
	C186.978897,158.303925 188.435928,159.689957 189.970428,160.965469 
M181.509781,159.345474 
	C181.479187,159.763657 181.448578,160.181854 181.417984,160.600037 
	C181.823105,160.429626 182.228210,160.259201 182.633331,160.088776 
	C182.351379,159.801132 182.069427,159.513474 181.509781,159.345474 
z"/>
<path fill="#101558" opacity="1.000000" stroke="none" 
	d="
M207.020569,110.006615 
	C208.041885,113.721802 209.359253,117.390846 209.948837,121.173325 
	C210.209778,122.847458 208.997284,124.751251 208.234238,126.773880 
	C206.510010,123.915871 204.733582,120.934418 203.558624,117.732285 
	C201.317215,111.623741 198.983994,105.486435 197.572174,99.163834 
	C196.923019,96.256729 198.359375,92.883926 198.974609,89.378983 
	C199.833054,89.029861 200.566940,89.024055 201.668121,89.361664 
	C203.905823,95.751678 202.600708,102.684860 207.139511,107.986443 
	C207.139511,107.986443 207.144928,108.463333 207.109619,108.968552 
	C207.056412,109.651382 207.038498,109.828995 207.020569,110.006615 
z"/>
<path fill="#141C5A" opacity="1.000000" stroke="none" 
	d="
M180.159882,166.288239 
	C182.272888,165.837433 184.513947,165.698029 186.881989,165.773010 
	C186.757538,170.510681 190.162537,170.485901 193.808228,171.112366 
	C194.960480,171.534698 195.481873,171.791138 196.003250,172.047577 
	C197.462494,174.253067 198.836151,176.521713 200.404144,178.646957 
	C202.100204,180.945740 203.977692,183.110687 205.890503,185.655106 
	C203.822037,185.777893 201.639099,185.579575 199.276886,185.178329 
	C199.097610,184.975388 198.998535,184.997284 198.998535,184.997284 
	C196.161530,183.691391 193.324539,182.385498 190.570053,181.117584 
	C190.507614,180.055588 190.888885,178.531693 190.297684,177.844971 
	C187.449005,174.535950 184.325729,171.464279 181.334045,168.276352 
	C180.891861,167.805176 180.632111,167.162796 180.159882,166.288239 
z"/>
<path fill="#0B0C54" opacity="1.000000" stroke="none" 
	d="
M139.938843,160.382538 
	C142.947525,158.105560 143.741287,159.743820 143.950531,162.948502 
	C143.981049,163.503525 144.007263,163.948700 143.831421,164.120132 
	C143.425095,164.523911 143.204117,164.764969 143.228531,165.234802 
	C145.688446,166.298569 147.912521,167.142303 150.136597,167.986053 
	C150.551178,167.988602 150.965759,167.991165 151.608307,168.326080 
	C151.562439,169.755890 151.288605,170.853348 151.011856,172.291931 
	C151.006851,173.087402 151.004745,173.541733 151.001328,173.998016 
	C151.000000,174.000000 150.996948,174.003586 150.715836,174.128830 
	C148.330368,174.731888 146.226013,175.209702 143.523071,175.823425 
	C144.656570,176.823029 145.336670,177.422806 146.016632,178.351929 
	C146.016449,179.120346 146.016418,179.559448 146.016373,179.998535 
	C144.955704,180.443619 143.010742,181.353699 142.964355,181.265488 
	C141.936218,179.310104 141.025452,177.276993 140.288956,175.189331 
	C139.707962,173.542480 139.021667,171.799484 139.036209,170.104782 
	C139.062958,166.986206 139.570709,163.871780 139.938843,160.382538 
z"/>
<path fill="#0E154F" opacity="1.000000" stroke="none" 
	d="
M190.188904,160.834015 
	C188.435928,159.689957 186.978897,158.303925 185.350327,157.162659 
	C182.265182,155.000702 183.155731,153.163696 186.092987,150.934814 
	C187.360931,149.344147 188.165543,148.156845 188.970154,146.969559 
	C189.154800,150.887558 190.783966,153.908234 194.972656,156.049728 
	C197.027588,156.939377 198.502823,157.478333 199.978043,158.017303 
	C199.978043,158.017303 199.986115,158.510712 199.882309,158.904266 
	C200.520279,159.866623 201.262039,160.435425 202.003815,161.004211 
	C202.003815,161.004211 202.487854,161.016525 202.729614,161.022064 
	C203.794113,161.937454 204.616882,162.847305 205.624359,164.205841 
	C205.532394,165.441299 205.255722,166.228058 204.979034,167.014832 
	C204.235809,167.001770 203.492584,166.988724 202.266113,166.657166 
	C200.506790,165.225464 199.230698,164.112244 197.954605,162.999008 
	C197.742096,162.777039 197.530228,162.554443 196.915253,161.980270 
	C195.624588,161.114166 194.737671,160.599030 193.850754,160.083893 
	C192.702957,160.290115 191.555161,160.496338 190.188904,160.834015 
z"/>
<path fill="#121C5B" opacity="1.000000" stroke="none" 
	d="
M214.995483,138.439636 
	C217.259048,137.739349 219.533722,137.438431 222.307602,137.071472 
	C223.075897,137.936905 224.243607,139.252213 225.661224,140.742981 
	C226.230774,141.730865 226.550415,142.543289 226.934464,143.680756 
	C226.998871,144.005798 226.977646,144.027008 226.977646,144.027008 
	C225.050537,145.825027 223.123413,147.623047 221.098984,149.694244 
	C219.003326,146.257965 217.004974,142.548492 214.995483,138.439636 
z"/>
<path fill="#151E5D" opacity="1.000000" stroke="none" 
	d="
M165.691895,152.081543 
	C168.629471,152.770859 171.283066,153.584595 174.707336,154.634644 
	C172.774353,156.336975 169.985779,157.772095 170.099640,158.919083 
	C170.296402,160.901062 172.294968,162.704132 173.803070,164.789444 
	C172.448563,164.989487 170.215042,165.656693 169.325195,164.847076 
	C166.793396,162.543564 164.489258,159.817978 162.820435,156.850784 
	C162.366165,156.043091 164.475235,153.793701 165.691895,152.081543 
z"/>
<path fill="#0B0C54" opacity="1.000000" stroke="none" 
	d="
M158.765839,177.766693 
	C158.051849,178.200089 157.107224,178.423523 156.154190,178.602234 
	C150.556686,179.651871 149.723145,181.534195 152.830719,186.761658 
	C147.869171,187.955643 147.213684,184.600632 147.146912,180.153259 
	C147.502625,179.017197 147.743927,178.516235 148.236145,178.007751 
	C148.654373,177.995773 148.821671,177.991318 149.115036,177.917542 
	C149.493347,177.563828 149.745590,177.279449 150.108398,176.699463 
	C150.478287,175.603760 150.737625,174.803680 150.996948,174.003586 
	C150.996948,174.003586 151.000000,174.000000 151.227432,173.828629 
	C151.967392,173.110382 152.479919,172.563507 153.331451,172.014328 
	C154.122849,172.008865 154.575226,172.005692 155.027603,172.002502 
	C156.195511,173.847031 157.363419,175.691559 158.765839,177.766693 
z"/>
<path fill="#0F1859" opacity="1.000000" stroke="none" 
	d="
M210.063385,190.018799 
	C210.785721,189.001846 211.738083,187.519440 212.418182,187.635300 
	C216.820740,188.385300 221.163956,189.483673 225.760773,190.677917 
	C224.950623,192.140121 223.906326,193.392273 223.433945,193.958679 
	C219.917007,193.741241 216.897415,193.857330 214.031311,193.249603 
	C212.598785,192.945862 211.446533,191.320236 210.063385,190.018799 
z"/>
<path fill="#12175A" opacity="1.000000" stroke="none" 
	d="
M144.007263,163.948700 
	C144.007263,163.948700 143.981049,163.503525 143.969940,163.281647 
	C145.505020,161.548874 147.051193,160.037979 149.040558,158.261948 
	C149.655029,157.996872 149.826294,157.996918 150.075043,158.318527 
	C150.784180,159.781464 151.415817,160.922836 152.047455,162.064209 
	C151.542114,163.892120 151.036758,165.720016 150.334000,167.766998 
	C147.912521,167.142303 145.688446,166.298569 143.401306,165.060791 
	C143.566895,164.432693 143.789917,164.193329 144.007263,163.948700 
M146.964813,165.471924 
	C146.964813,165.471924 146.999069,165.475937 146.964813,165.471924 
M149.517426,162.481476 
	C149.517426,162.481476 149.486298,162.484894 149.517426,162.481476 
z"/>
<path fill="#0B0C54" opacity="1.000000" stroke="none" 
	d="
M153.967300,189.307465 
	C156.599625,191.458710 159.179459,193.934677 161.885101,196.697357 
	C158.367844,195.573410 153.320679,195.708969 153.967300,189.307465 
z"/>
<path fill="#000000" opacity="1.000000" stroke="none" 
	d="
M188.980316,146.992599 
	C188.165543,148.156845 187.360931,149.344147 186.323364,150.731873 
	C184.770294,149.494354 183.450150,148.056396 181.945129,146.348755 
	C181.760269,146.079086 181.914841,145.615021 182.381042,145.356354 
	C184.880569,145.729660 186.913910,146.361633 188.947250,146.993607 
	C188.947250,146.993607 188.990494,147.015640 188.980316,146.992599 
z"/>
<path fill="#0B0C54" opacity="1.000000" stroke="none" 
	d="
M174.891556,190.657120 
	C173.081207,189.206177 171.163666,187.429688 169.114960,185.334808 
	C170.917313,186.788147 172.850830,188.559860 174.891556,190.657120 
z"/>
<path fill="#0E154F" opacity="1.000000" stroke="none" 
	d="
M189.195312,146.799561 
	C186.913910,146.361633 184.880569,145.729660 182.444717,145.120239 
	C185.107925,144.169037 188.173660,143.195297 192.377594,141.860046 
	C191.041946,144.020172 190.242676,145.312836 189.195312,146.799561 
z"/>
<path fill="#0F1859" opacity="1.000000" stroke="none" 
	d="
M226.238617,191.208908 
	C228.154877,190.912384 230.235352,190.883636 232.662415,190.926300 
	C233.014191,191.436462 233.019348,191.875214 233.028854,192.642426 
	C230.823074,192.472809 228.612930,191.974747 226.238617,191.208908 
z"/>
<path fill="#15215D" opacity="1.000000" stroke="none" 
	d="
M152.286438,161.840546 
	C151.415817,160.922836 150.784180,159.781464 150.467407,158.314743 
	C151.824646,157.974335 152.867035,157.959290 153.909409,157.944244 
	C153.909409,157.944244 153.972046,157.993378 154.003342,158.018646 
	C153.531555,159.234894 153.028488,160.425888 152.286438,161.840546 
z"/>
<path fill="#12175A" opacity="1.000000" stroke="none" 
	d="
M154.884277,171.712952 
	C154.575226,172.005692 154.122849,172.008865 153.001923,172.003571 
	C151.893829,171.980331 151.454300,171.965561 151.014771,171.950790 
	C151.288605,170.853348 151.562439,169.755890 151.919250,168.329376 
	C152.915131,169.141342 153.828033,170.282364 154.884277,171.712952 
z"/>
<path fill="#0C0C4F" opacity="1.000000" stroke="none" 
	d="
M199.807816,157.765015 
	C198.502823,157.478333 197.027588,156.939377 195.271851,156.214172 
	C196.540100,156.522873 198.088837,157.017807 199.807816,157.765015 
z"/>
<path fill="#0C0C4F" opacity="1.000000" stroke="none" 
	d="
M201.831589,160.776672 
	C201.262039,160.435425 200.520279,159.866623 199.886383,159.150970 
	C200.549301,159.519119 201.104340,160.034119 201.831589,160.776672 
z"/>
<path fill="#121E57" opacity="1.000000" stroke="none" 
	d="
M170.108795,109.775589 
	C170.219360,110.015038 170.233612,110.247604 170.247879,110.480164 
	C170.119614,110.471436 169.991333,110.462715 169.863068,110.453987 
	C169.912872,110.225555 169.962677,109.997131 170.108795,109.775589 
z"/>
<path fill="#0B0C54" opacity="1.000000" stroke="none" 
	d="
M161.893723,180.712433 
	C161.399628,180.194565 160.801544,179.388214 160.099243,178.293610 
	C160.593262,178.811539 161.191498,179.617737 161.893723,180.712433 
z"/>
<path fill="#0B0C54" opacity="1.000000" stroke="none" 
	d="
M163.289642,197.112183 
	C163.889191,197.199966 164.778503,197.416046 165.829803,197.818146 
	C165.187668,197.749588 164.383530,197.495026 163.289642,197.112183 
z"/>
<path fill="#0B1554" opacity="1.000000" stroke="none" 
	d="
M147.985229,178.015259 
	C147.743927,178.516235 147.502625,179.017197 147.126953,179.761871 
	C146.992569,180.005600 146.504272,180.001083 146.260315,179.999817 
	C146.016418,179.559448 146.016449,179.120346 146.344574,178.350525 
	C147.110184,178.018295 147.547714,178.016785 147.985229,178.015259 
z"/>
<path fill="#15215D" opacity="1.000000" stroke="none" 
	d="
M141.032074,131.990143 
	C141.044373,132.006424 141.019791,131.973846 141.032074,131.990143 
z"/>
<path fill="#0B0C54" opacity="1.000000" stroke="none" 
	d="
M166.797913,183.783920 
	C166.420258,183.496170 165.877426,182.979553 165.167725,182.235046 
	C165.544815,182.523102 166.088791,183.039093 166.797913,183.783920 
z"/>
<path fill="#16245D" opacity="1.000000" stroke="none" 
	d="
M214.005768,132.997772 
	C213.500351,132.754776 212.990616,132.516907 212.239578,132.133499 
	C211.998276,131.987961 211.984421,131.999924 212.240173,132.109161 
	C212.998154,132.483780 213.500397,132.749146 214.002640,133.014511 
	C214.002640,133.014511 214.001434,133.002899 214.005768,132.997772 
z"/>
<path fill="#0D1250" opacity="1.000000" stroke="none" 
	d="
M198.000275,89.000244 
	C198.000565,89.000481 197.967728,89.022980 197.983658,89.011261 
	C197.999588,88.999550 198.000000,89.000000 198.000275,89.000244 
z"/>
<path fill="#08134C" opacity="1.000000" stroke="none" 
	d="
M243.020233,157.030930 
	C242.115570,157.847458 241.210922,158.663986 239.900497,159.742157 
	C239.494720,160.003784 239.007034,160.004364 239.007034,160.004364 
	C239.007034,160.004364 238.524780,159.971024 238.259674,159.677414 
	C237.981094,159.193481 237.967621,159.003174 237.960220,158.497711 
	C238.008026,157.764648 238.049759,157.346741 238.074982,156.815140 
	C238.036270,156.471664 238.032822,156.241699 237.846161,155.871109 
	C238.485870,151.291550 239.327530,146.852448 240.169205,142.413345 
	C239.757462,142.301056 239.345734,142.188766 238.934006,142.076477 
	C238.438278,142.610214 237.942566,143.143936 237.768158,143.331711 
	C236.557053,141.974472 235.326385,140.595291 234.095703,139.216125 
	C235.200409,137.211960 236.305130,135.207779 237.700226,133.109070 
	C240.588989,137.591599 243.424255,142.055664 245.684662,146.793991 
	C246.795242,149.122009 246.840393,151.958267 247.070068,154.477356 
	C245.778183,153.470963 244.783920,152.551743 242.712799,150.636963 
	C242.869080,153.887314 242.944656,155.459122 243.020233,157.030930 
z"/>
<path fill="#0D1D56" opacity="1.000000" stroke="none" 
	d="
M243.259186,157.162430 
	C242.944656,155.459122 242.869080,153.887314 242.712799,150.636963 
	C244.783920,152.551743 245.778183,153.470963 246.889740,154.689102 
	C246.457504,155.835953 245.907974,156.683868 245.166580,157.767120 
	C244.482513,157.766281 243.990326,157.530106 243.259186,157.162430 
z"/>
<path fill="#14235B" opacity="1.000000" stroke="none" 
	d="
M253.218170,179.828323 
	C253.216522,179.854172 253.219833,179.802475 253.218170,179.828323 
z"/>
<path fill="#122159" opacity="1.000000" stroke="none" 
	d="
M207.329224,107.831711 
	C202.600708,102.684860 203.905823,95.751678 202.036652,89.360382 
	C205.135590,88.606911 208.233292,88.198151 211.632721,87.906204 
	C209.849258,92.357002 211.720062,96.232971 213.388977,100.107613 
	C213.614075,100.630211 214.173523,101.107346 214.695114,101.388725 
	C221.095871,104.841743 221.182251,105.296379 216.133026,110.750748 
	C214.533646,110.065262 213.150635,108.927216 211.568207,108.267662 
	C210.348282,107.759216 208.877930,107.851692 207.329224,107.831711 
M204.523102,90.484161 
	C204.523102,90.484161 204.483871,90.493782 204.523102,90.484161 
M215.480789,103.516350 
	C215.480789,103.516350 215.514496,103.510536 215.480789,103.516350 
z"/>
<path fill="#000000" opacity="1.000000" stroke="none" 
	d="
M238.091507,156.928818 
	C238.049759,157.346741 238.008026,157.764648 237.797379,158.674652 
	C237.408783,159.410431 237.268448,159.693466 237.207458,160.015823 
	C236.967758,160.547012 236.728073,161.078217 236.176208,161.601837 
	C230.922012,163.352844 225.979980,165.111420 220.950348,166.604004 
	C220.528839,165.898132 220.194962,165.458282 219.861099,165.018417 
	C225.947891,159.849380 228.378387,152.624832 230.946762,145.453125 
	C231.653473,143.479752 232.721985,141.635971 233.860092,139.474426 
	C235.326385,140.595291 236.557053,141.974472 237.768158,143.331711 
	C237.942566,143.143936 238.438278,142.610214 238.934006,142.076477 
	C239.345734,142.188766 239.757462,142.301056 240.169205,142.413345 
	C239.327530,146.852448 238.485870,151.291550 237.847565,156.100800 
	C238.050949,156.470978 238.091507,156.928818 238.091507,156.928818 
z"/>
<path fill="#0C1A4E" opacity="1.000000" stroke="none" 
	d="
M219.475967,165.003632 
	C220.194962,165.458282 220.528839,165.898132 221.069672,166.821106 
	C222.174805,168.543243 223.072983,169.782257 223.971161,171.021271 
	C221.392868,173.066605 218.992767,175.414673 216.183746,177.068008 
	C213.626480,178.573181 210.564438,180.542023 208.337402,176.102859 
	C207.875839,175.182816 206.157043,174.893478 204.979706,174.294128 
	C204.979706,172.085571 204.979706,169.949371 204.979370,167.414001 
	C205.255722,166.228058 205.532394,165.441299 205.898315,164.357330 
	C210.355331,164.369690 214.723083,164.679276 219.475967,165.003632 
z"/>
<path fill="#0C0853" opacity="1.000000" stroke="none" 
	d="
M220.010162,160.963989 
	C220.030701,160.966644 219.989609,160.961349 220.010162,160.963989 
z"/>
<path fill="#121C5B" opacity="1.000000" stroke="none" 
	d="
M227.010941,143.997269 
	C227.023010,143.988739 227.015274,144.117462 226.996460,144.072235 
	C226.977646,144.027008 226.998871,144.005798 227.010941,143.997269 
z"/>
<path fill="#0D1D56" opacity="1.000000" stroke="none" 
	d="
M223.981186,171.015045 
	C223.072983,169.782257 222.174805,168.543243 221.157303,167.087097 
	C225.979980,165.111420 230.922012,163.352844 235.935333,161.768295 
	C234.474762,164.670288 233.123779,167.523651 231.349243,170.083405 
	C230.105362,171.877670 228.283600,173.271317 226.297699,174.615051 
	C225.246964,173.264572 224.618454,172.142914 223.989929,171.021255 
	C223.989929,171.021255 223.991211,171.008820 223.981186,171.015045 
z"/>
<path fill="#1C3061" opacity="1.000000" stroke="none" 
	d="
M247.284912,168.016815 
	C245.712646,172.874329 243.982758,173.587296 238.382309,170.565750 
	C241.989777,169.433334 244.548950,168.630005 247.284912,168.016815 
z"/>
<path fill="#0C1A4E" opacity="1.000000" stroke="none" 
	d="
M197.932297,163.367935 
	C199.230698,164.112244 200.506790,165.225464 201.894592,166.646301 
	C201.116669,168.122665 200.227051,169.291412 199.081116,170.593140 
	C198.546341,170.485855 198.267883,170.245605 197.989410,170.005341 
	C197.962936,167.915848 197.936462,165.826355 197.932297,163.367935 
z"/>
<path fill="#0D1D56" opacity="1.000000" stroke="none" 
	d="
M236.521606,166.245056 
	C236.715027,166.442184 236.806107,166.664673 236.897186,166.887146 
	C236.757919,166.922287 236.618652,166.957443 236.479370,166.992584 
	C236.459335,166.751862 236.439301,166.511139 236.521606,166.245056 
z"/>
<path fill="#0C1A4E" opacity="1.000000" stroke="none" 
	d="
M193.968124,160.317352 
	C194.737671,160.599030 195.624588,161.114166 196.755859,161.813797 
	C196.028656,161.515778 195.057068,161.033295 193.968124,160.317352 
z"/>
<path fill="#0C1A4E" opacity="1.000000" stroke="none" 
	d="
M224.050446,171.294708 
	C224.618454,172.142914 225.246964,173.264572 225.955170,174.705994 
	C225.393570,173.873230 224.752258,172.720703 224.050446,171.294708 
z"/>
<path fill="#141C5A" opacity="1.000000" stroke="none" 
	d="
M198.150635,170.167526 
	C198.267883,170.245605 198.546341,170.485855 198.894501,170.846985 
	C198.743866,170.758057 198.526428,170.545349 198.150635,170.167526 
z"/>
<path fill="#0C1A4E" opacity="1.000000" stroke="none" 
	d="
M195.756363,171.893723 
	C195.481873,171.791138 194.960480,171.534698 194.184631,171.134842 
	C194.456604,171.240906 194.983032,171.490387 195.756363,171.893723 
z"/>
<path fill="#0D1D56" opacity="1.000000" stroke="none" 
	d="
M241.498535,161.999451 
	C241.480698,162.004074 241.516373,161.994827 241.498535,161.999451 
z"/>
<path fill="#0D1D56" opacity="1.000000" stroke="none" 
	d="
M239.128571,160.023148 
	C239.007034,160.004364 239.494720,160.003784 239.738251,160.002045 
	C239.981781,160.000305 239.617386,160.049088 239.617386,160.049088 
	C239.617386,160.049088 239.250122,160.041931 239.128571,160.023148 
z"/>
<path fill="#0D1D56" opacity="1.000000" stroke="none" 
	d="
M243.496643,159.513931 
	C243.513962,159.510834 243.479340,159.517029 243.496643,159.513931 
z"/>
<path fill="#0D1D56" opacity="1.000000" stroke="none" 
	d="
M237.416168,160.001770 
	C237.268448,159.693466 237.408783,159.410431 237.791321,158.989807 
	C237.967621,159.003174 237.981094,159.193481 238.018158,159.668152 
	C238.041748,159.952515 237.624878,159.987701 237.416168,160.001770 
z"/>
<path fill="#0C0853" opacity="1.000000" stroke="none" 
	d="
M152.505646,125.484741 
	C152.487900,125.488197 152.523376,125.481285 152.505646,125.484741 
z"/>
<path fill="#0E1756" opacity="1.000000" stroke="none" 
	d="
M153.804871,157.697479 
	C152.867035,157.959290 151.824646,157.974335 150.389923,157.993164 
	C149.826294,157.996918 149.655029,157.996872 149.226517,157.995941 
	C149.227936,155.239639 149.486603,152.484222 149.872101,149.362000 
	C149.998932,148.995224 150.055679,148.942429 150.055679,148.942429 
	C154.352386,150.458359 152.962891,154.410080 153.804871,157.697479 
z"/>
<path fill="#121E57" opacity="1.000000" stroke="none" 
	d="
M151.469147,138.518860 
	C151.464264,138.501205 151.474014,138.536530 151.469147,138.518860 
z"/>
<path fill="#0C0853" opacity="1.000000" stroke="none" 
	d="
M163.982697,148.013489 
	C163.964859,148.031677 163.998718,147.935181 164.018082,147.947708 
	C164.037445,147.960236 164.000519,147.995300 163.982697,148.013489 
z"/>
<path fill="#0C0853" opacity="1.000000" stroke="none" 
	d="
M144.010864,136.017303 
	C144.000000,136.000000 144.021713,136.034622 144.010864,136.017303 
z"/>
<path fill="#0E1756" opacity="1.000000" stroke="none" 
	d="
M149.971985,149.023071 
	C149.945023,149.050934 150.007294,148.928009 150.031494,148.935211 
	C150.055679,148.942429 149.998932,148.995224 149.971985,149.023071 
z"/>
<path fill="#121E57" opacity="1.000000" stroke="none" 
	d="
M149.497162,133.515320 
	C149.513031,133.513504 149.481293,133.517151 149.497162,133.515320 
z"/>
<path fill="#0F1D51" opacity="1.000000" stroke="none" 
	d="
M223.952911,122.444519 
	C224.840958,123.284561 225.529114,124.076874 226.217285,124.869186 
	C226.045670,125.073097 225.874039,125.277000 225.702423,125.480904 
	C224.948669,125.071556 224.050934,124.793846 223.503876,124.195526 
	C223.243103,123.910301 223.649063,123.015480 223.952911,122.444519 
z"/>
<path fill="#0C0853" opacity="1.000000" stroke="none" 
	d="
M213.993164,132.836151 
	C213.500397,132.749146 212.998154,132.483780 212.231445,132.112198 
	C212.639206,132.223251 213.311447,132.440536 213.993164,132.836151 
z"/>
<path fill="#0C0853" opacity="1.000000" stroke="none" 
	d="
M210.503815,129.578674 
	C210.471069,129.565948 210.536575,129.591415 210.503815,129.578674 
z"/>
<path fill="#122159" opacity="1.000000" stroke="none" 
	d="
M213.499146,113.989044 
	C213.484024,113.992722 213.514267,113.985374 213.499146,113.989044 
z"/>
<path fill="#101558" opacity="1.000000" stroke="none" 
	d="
M207.982132,108.986961 
	C208.094864,109.178177 208.231400,109.360573 208.307358,109.565422 
	C208.333755,109.636612 208.210190,109.763390 208.069824,109.680862 
	C207.983734,109.326958 207.982941,109.156960 207.982132,108.986961 
z"/>
<path fill="#122159" opacity="1.000000" stroke="none" 
	d="
M207.771439,108.976578 
	C207.982941,109.156960 207.983734,109.326958 207.988022,109.752029 
	C207.991501,110.007103 207.505737,110.005043 207.263153,110.005829 
	C207.038498,109.828995 207.056412,109.651382 207.106964,109.207001 
	C207.139618,108.940231 207.560745,108.966194 207.771439,108.976578 
z"/>
<path fill="#0E154F" opacity="1.000000" stroke="none" 
	d="
M181.648621,159.285645 
	C182.069427,159.513474 182.351379,159.801132 182.633331,160.088776 
	C182.228210,160.259201 181.823105,160.429626 181.417984,160.600037 
	C181.448578,160.181854 181.479187,159.763657 181.648621,159.285645 
z"/>
<path fill="#0C0853" opacity="1.000000" stroke="none" 
	d="
M198.999268,184.998642 
	C198.998535,184.997284 199.097610,184.975388 199.050568,184.989105 
	C199.003540,185.002838 199.000000,185.000000 198.999268,184.998642 
z"/>
<path fill="#0C0853" opacity="1.000000" stroke="none" 
	d="
M148.236145,178.007751 
	C147.547714,178.016785 147.110184,178.018295 146.344727,178.021194 
	C145.336670,177.422806 144.656570,176.823029 143.523071,175.823425 
	C146.226013,175.209702 148.330368,174.731888 150.715836,174.128830 
	C150.737625,174.803680 150.478287,175.603760 149.939392,176.863983 
	C149.435104,177.543915 149.211487,177.764832 148.988983,177.986862 
	C148.821671,177.991318 148.654373,177.995773 148.236145,178.007751 
z"/>
<path fill="#0C0853" opacity="1.000000" stroke="none" 
	d="
M151.011856,172.291931 
	C151.454300,171.965561 151.893829,171.980331 152.662903,172.005859 
	C152.479919,172.563507 151.967392,173.110382 151.228760,173.826660 
	C151.004745,173.541733 151.006851,173.087402 151.011856,172.291931 
z"/>
<path fill="#15215D" opacity="1.000000" stroke="none" 
	d="
M143.831421,164.120132 
	C143.789917,164.193329 143.566895,164.432693 143.165436,164.840759 
	C143.204117,164.764969 143.425095,164.523911 143.831421,164.120132 
z"/>
<path fill="#0B1554" opacity="1.000000" stroke="none" 
	d="
M149.115036,177.917542 
	C149.211487,177.764832 149.435104,177.543915 149.828842,177.159576 
	C149.745590,177.279449 149.493347,177.563828 149.115036,177.917542 
z"/>
<path fill="#0B0C54" opacity="1.000000" stroke="none" 
	d="
M146.981934,165.473938 
	C146.999069,165.475937 146.964813,165.471924 146.981934,165.473938 
z"/>
<path fill="#15215D" opacity="1.000000" stroke="none" 
	d="
M149.501862,162.483185 
	C149.486298,162.484894 149.517426,162.481476 149.501862,162.483185 
z"/>
<path fill="#14235B" opacity="1.000000" stroke="none" 
	d="
M238.074982,156.815140 
	C238.091507,156.928818 238.050949,156.470978 238.049530,156.241272 
	C238.032822,156.241699 238.036270,156.471664 238.074982,156.815140 
z"/>
<path fill="#0D1250" opacity="1.000000" stroke="none" 
	d="
M204.503479,90.488968 
	C204.483871,90.493782 204.523102,90.484161 204.503479,90.488968 
z"/>
<path fill="#0F1D51" opacity="1.000000" stroke="none" 
	d="
M215.497650,103.513443 
	C215.514496,103.510536 215.480789,103.516350 215.497650,103.513443 
z"/>
</svg>